<svg xmlns="http://www.w3.org/2000/svg" viewBox="0 0 32 40" x="0px" y="0px"><path d="M16,2.027c-7.704,0-13.973,6.268-13.973,13.973s6.269,13.973,13.973,13.973,13.973-6.268,13.973-13.973S23.704,2.027,16,2.027Zm0,25.945c-6.602,0-11.973-5.371-11.973-11.973S9.398,4.027,16,4.027s11.973,5.371,11.973,11.973-5.371,11.973-11.973,11.973Z"/><path d="M13.455,10.709h-1.13v-1.13c0-.552-.447-1-1-1s-1,.448-1,1v1.13h-1.13c-.553,0-1,.448-1,1s.447,1,1,1h1.13v1.13c0,.552,.447,1,1,1s1-.448,1-1v-1.13h1.13c.553,0,1-.448,1-1s-.447-1-1-1Z"/><path d="M13.455,20.06h-4.26c-.553,0-1,.448-1,1s.447,1,1,1h4.26c.553,0,1-.448,1-1s-.447-1-1-1Z"/><path d="M18.462,13.923c.195,.195,.451,.293,.707,.293s.512-.098,.707-.293l.799-.799,.799,.799c.195,.195,.451,.293,.707,.293s.512-.098,.707-.293c.391-.39,.391-1.023,0-1.414l-.799-.799,.799-.799c.391-.391,.391-1.024,0-1.414-.391-.391-1.023-.391-1.414,0l-.799,.799-.799-.799c-.391-.391-1.023-.391-1.414,0-.391,.39-.391,1.023,0,1.414l.799,.799-.799,.799c-.391,.391-.391,1.024,0,1.414Z"/><path d="M22.805,18.227h-4.26c-.553,0-1,.448-1,1s.447,1,1,1h4.26c.553,0,1-.448,1-1s-.447-1-1-1Z"/><path d="M22.805,21.42h-4.26c-.553,0-1,.448-1,1s.447,1,1,1h4.26c.553,0,1-.448,1-1s-.447-1-1-1Z"/><text x="0" y="47" fill="#000000" font-size="5px" font-weight="bold" font-family="'Helvetica Neue', Helvetica, Arial-Unicode, Arial, Sans-serif">Created by Kiki Rizky</text><text x="0" y="52" fill="#000000" font-size="5px" font-weight="bold" font-family="'Helvetica Neue', Helvetica, Arial-Unicode, Arial, Sans-serif">from the Noun Project</text></svg>